<svg width="80" height="80" viewBox="0 0 80 80" fill="none" xmlns="http://www.w3.org/2000/svg">
<circle cx="40" cy="40" r="40" fill="#508296"/>
<path d="M54.5 20H47C47 16.6906 44.3094 14 41 14C37.6906 14 35 16.6906 35 20H27.5C25.0156 20 23 22.0156 23 24.5V57.5C23 59.9844 25.0156 62 27.5 62H54.5C56.9844 62 59 59.9844 59 57.5V24.5C59 22.0156 56.9844 20 54.5 20ZM32 53.75C30.7531 53.75 29.75 52.7469 29.75 51.5C29.75 50.2531 30.7531 49.25 32 49.25C33.2469 49.25 34.25 50.2531 34.25 51.5C34.25 52.7469 33.2469 53.75 32 53.75ZM32 44.75C30.7531 44.75 29.75 43.7469 29.75 42.5C29.75 41.2531 30.7531 40.25 32 40.25C33.2469 40.25 34.25 41.2531 34.25 42.5C34.25 43.7469 33.2469 44.75 32 44.75ZM32 35.75C30.7531 35.75 29.75 34.7469 29.75 33.5C29.75 32.2531 30.7531 31.25 32 31.25C33.2469 31.25 34.25 32.2531 34.25 33.5C34.25 34.7469 33.2469 35.75 32 35.75ZM41 17.75C42.2469 17.75 43.25 18.7531 43.25 20C43.25 21.2469 42.2469 22.25 41 22.25C39.7531 22.25 38.75 21.2469 38.75 20C38.75 18.7531 39.7531 17.75 41 17.75ZM53 52.25C53 52.6625 52.6625 53 52.25 53H38.75C38.3375 53 38 52.6625 38 52.25V50.75C38 50.3375 38.3375 50 38.75 50H52.25C52.6625 50 53 50.3375 53 50.75V52.25ZM53 43.25C53 43.6625 52.6625 44 52.25 44H38.75C38.3375 44 38 43.6625 38 43.25V41.75C38 41.3375 38.3375 41 38.75 41H52.25C52.6625 41 53 41.3375 53 41.75V43.25ZM53 34.25C53 34.6625 52.6625 35 52.25 35H38.75C38.3375 35 38 34.6625 38 34.25V32.75C38 32.3375 38.3375 32 38.75 32H52.25C52.6625 32 53 32.3375 53 32.75V34.25Z" fill="#165873"/>
</svg>
