<svg width="98" height="79" viewBox="0 0 98 79" fill="none" xmlns="http://www.w3.org/2000/svg">
<g clip-path="url(#clip0)">
<path d="M73.5107 14.8125H24.5C20.4604 14.8119 16.4834 15.8178 12.9229 17.7407C9.36251 19.6635 6.32916 22.4436 4.09295 25.8335C1.85673 29.2234 0.487038 33.1179 0.105812 37.1702C-0.275414 41.2225 0.343655 45.3069 1.9079 49.0598C3.47215 52.8127 5.93304 56.1176 9.07149 58.6804C12.2099 61.2431 15.9285 62.9841 19.8963 63.7484C23.864 64.5127 27.9577 64.2766 31.8129 63.061C35.6681 61.8454 39.1653 59.6882 41.993 56.7812H56.007C58.8343 59.6878 62.331 61.8449 66.1857 63.0606C70.0405 64.2762 74.1337 64.5127 78.101 63.7489C82.0684 62.9852 85.7868 61.2449 88.9253 58.6829C92.0638 56.121 94.5251 52.8169 96.09 49.0648C97.6548 45.3126 98.2748 41.2288 97.8948 37.1769C97.5147 33.1249 96.1463 29.2305 93.9114 25.8403C91.6766 22.45 88.6446 19.6691 85.0853 17.7451C81.5259 15.8211 77.5498 14.8137 73.5107 14.8125ZM37.975 41.3516C37.975 41.8426 37.7814 42.3136 37.4368 42.6608C37.0922 43.0081 36.6248 43.2031 36.1375 43.2031H28.175V51.2266C28.175 51.7176 27.9814 52.1886 27.6368 52.5358C27.2922 52.8831 26.8248 53.0781 26.3375 53.0781H22.6625C22.1751 53.0781 21.7078 52.8831 21.3632 52.5358C21.0186 52.1886 20.825 51.7176 20.825 51.2266V43.2031H12.8625C12.3751 43.2031 11.9078 43.0081 11.5632 42.6608C11.2186 42.3136 11.025 41.8426 11.025 41.3516V37.6484C11.025 37.1574 11.2186 36.6864 11.5632 36.3392C11.9078 35.992 12.3751 35.7969 12.8625 35.7969H20.825V27.7734C20.825 27.2824 21.0186 26.8114 21.3632 26.4642C21.7078 26.117 22.1751 25.9219 22.6625 25.9219H26.3375C26.8248 25.9219 27.2922 26.117 27.6368 26.4642C27.9814 26.8114 28.175 27.2824 28.175 27.7734V35.7969H36.1375C36.6248 35.7969 37.0922 35.992 37.4368 36.3392C37.7814 36.6864 37.975 37.1574 37.975 37.6484V41.3516ZM71.05 53.0781C69.8386 53.0781 68.6544 52.7162 67.6471 52.038C66.6398 51.3598 65.8548 50.3959 65.3912 49.2681C64.9276 48.1404 64.8063 46.8994 65.0427 45.7022C65.279 44.5049 65.8623 43.4052 66.7189 42.5421C67.5755 41.6789 68.6669 41.0911 69.855 40.853C71.0432 40.6148 72.2747 40.737 73.3939 41.2042C74.5131 41.6713 75.4697 42.4624 76.1427 43.4773C76.8157 44.4923 77.175 45.6856 77.175 46.9062C77.175 48.5431 76.5297 50.113 75.381 51.2704C74.2323 52.4279 72.6744 53.0781 71.05 53.0781ZM80.85 38.2656C79.6386 38.2656 78.4544 37.9037 77.4471 37.2255C76.4398 36.5473 75.6548 35.5834 75.1912 34.4556C74.7276 33.3279 74.6063 32.0869 74.8427 30.8897C75.079 29.6924 75.6623 28.5927 76.5189 27.7296C77.3755 26.8664 78.4669 26.2786 79.655 26.0405C80.8432 25.8023 82.0747 25.9245 83.1939 26.3917C84.3131 26.8588 85.2697 27.6499 85.9427 28.6648C86.6157 29.6798 86.975 30.8731 86.975 32.0938C86.975 33.7306 86.3297 35.3005 85.181 36.4579C84.0323 37.6154 82.4744 38.2656 80.85 38.2656Z" fill="#252626"/>
</g>
<defs>
<clipPath id="clip0">
<rect width="98" height="79" rx="8" fill="white"/>
</clipPath>
</defs>
</svg>
