<svg width="140" height="140" viewBox="0 0 140 140" fill="none" xmlns="http://www.w3.org/2000/svg">
<circle cx="70" cy="70" r="68.5" fill="#252626" stroke="#0D0D0D" stroke-width="3"/>
<path d="M104.506 44.1133L75.608 26.5775C72.1415 24.4742 67.8567 24.4742 64.3903 26.5775L35.4937 44.1133C34.5675 44.6747 34.5727 46.0723 35.5042 46.6268L70 67.1629L104.498 46.6268C105.429 46.0723 105.434 44.6765 104.506 44.1133V44.1133ZM106.916 51.8712L72.7857 72.1882V111.094C72.7857 113.333 75.117 114.729 76.973 113.603L103.465 97.5272C106.892 95.4482 109 91.6274 109 87.4973V53.1315C109 52.0172 107.844 51.3184 106.916 51.8712V51.8712ZM31 53.1315V87.4973C31 91.6292 33.1084 95.4482 36.5349 97.5272L63.027 113.601C64.8847 114.727 67.2143 113.333 67.2143 111.093V72.1882L33.0841 51.8712C32.1561 51.3184 31 52.0172 31 53.1315Z" fill="#0D0D0D"/>
</svg>
