<svg width="78" height="89" viewBox="0 0 78 89" fill="none" xmlns="http://www.w3.org/2000/svg">
<g clip-path="url(#clip0)">
<path d="M73.5063 19.1113L44.608 1.57555C41.1415 -0.527768 36.8567 -0.527768 33.3903 1.57555L4.49371 19.1113C3.56746 19.6728 3.57268 21.0704 4.50415 21.6249L39 42.1609L73.4976 21.6249C74.4291 21.0704 74.4343 19.6745 73.5063 19.1113ZM75.9159 26.8693L41.7857 47.1863V86.0925C41.7857 88.3314 44.117 89.7273 45.973 88.6009L72.4651 72.5252C75.8916 70.4463 78 66.6255 78 62.4954V28.1295C78 27.0153 76.8439 26.3165 75.9159 26.8693ZM0 28.1295V62.4954C0 66.6272 2.10844 70.4463 5.53487 72.5252L32.027 88.5991C33.8847 89.7255 36.2143 88.3314 36.2143 86.0908V47.1863L2.08406 26.8693C1.15607 26.3165 0 27.0153 0 28.1295Z" fill="#252626"/>
</g>
<defs>
<clipPath id="clip0">
<rect width="78" height="89" rx="8" fill="white"/>
</clipPath>
</defs>
</svg>
