<svg width="99" height="77" viewBox="0 0 99 77" fill="none" xmlns="http://www.w3.org/2000/svg">
<path d="M90.75 0H8.25C3.69531 0 0 3.69531 0 8.25V68.75C0 73.3047 3.69531 77 8.25 77H90.75C95.3047 77 99 73.3047 99 68.75V8.25C99 3.69531 95.3047 0 90.75 0ZM30.25 16.5C36.3172 16.5 41.25 21.4328 41.25 27.5C41.25 33.5672 36.3172 38.5 30.25 38.5C24.1828 38.5 19.25 33.5672 19.25 27.5C19.25 21.4328 24.1828 16.5 30.25 16.5ZM49.5 57.2C49.5 59.0219 47.7812 60.5 45.65 60.5H14.85C12.7188 60.5 11 59.0219 11 57.2V53.9C11 48.4344 16.1734 44 22.55 44C23.1173 44 23.677 44.1179 24.2106 44.3106C26.1009 44.9933 28.1294 45.375 30.25 45.375C32.369 45.375 34.4092 44.9939 36.2901 44.3122C36.8234 44.1189 37.3827 44 37.95 44C44.3266 44 49.5 48.4344 49.5 53.9V57.2ZM88 48.125C88 48.8812 87.3812 49.5 86.625 49.5H61.875C61.1188 49.5 60.5 48.8812 60.5 48.125V45.375C60.5 44.6188 61.1188 44 61.875 44H86.625C87.3812 44 88 44.6188 88 45.375V48.125ZM88 37.125C88 37.8812 87.3812 38.5 86.625 38.5H61.875C61.1188 38.5 60.5 37.8812 60.5 37.125V34.375C60.5 33.6188 61.1188 33 61.875 33H86.625C87.3812 33 88 33.6188 88 34.375V37.125ZM88 26.125C88 26.8813 87.3812 27.5 86.625 27.5H61.875C61.1188 27.5 60.5 26.8813 60.5 26.125V23.375C60.5 22.6187 61.1188 22 61.875 22H86.625C87.3812 22 88 22.6187 88 23.375V26.125Z" fill="#252626"/>
</svg>
