<svg width="140" height="140" viewBox="0 0 140 140" fill="none" xmlns="http://www.w3.org/2000/svg">
<circle cx="70" cy="70" r="68.5" fill="#252626" stroke="#0D0D0D" stroke-width="3"/>
<g clip-path="url(#clip0)">
<path d="M54 69.9999C57.9556 69.9999 61.8224 68.827 65.1114 66.6293C68.4004 64.4317 70.9638 61.3081 72.4776 57.6536C73.9913 53.9991 74.3874 49.9778 73.6157 46.0981C72.844 42.2185 70.9392 38.6549 68.1421 35.8578C65.3451 33.0608 61.7814 31.1559 57.9018 30.3842C54.0222 29.6125 50.0009 30.0086 46.3463 31.5224C42.6918 33.0361 39.5682 35.5996 37.3706 38.8885C35.173 42.1775 34 46.0443 34 49.9999C34 55.3043 36.1071 60.3914 39.8579 64.1421C43.6086 67.8928 48.6957 69.9999 54 69.9999ZM69 79.9999C69.0113 78.3298 69.4468 76.69 70.2656 75.2343C69.5156 75.1562 68.7812 74.9999 68 74.9999H65.3906C61.8191 76.647 57.933 77.4999 54 77.4999C50.067 77.4999 46.1809 76.647 42.6094 74.9999H40C34.4308 75.0012 29.0901 77.2141 25.1521 81.1521C21.2141 85.0901 19.0012 90.4308 19 95.9999V102.5C19 104.489 19.7902 106.397 21.1967 107.803C22.6032 109.21 24.5109 110 26.5 110H70.3906C69.492 108.486 69.012 106.76 69 105V79.9999ZM114 74.9999H109V62.4999C109 59.1847 107.683 56.0053 105.339 53.6611C102.995 51.3169 99.8152 49.9999 96.5 49.9999C93.1848 49.9999 90.0054 51.3169 87.6612 53.6611C85.317 56.0053 84 59.1847 84 62.4999V74.9999H79C77.6739 74.9999 76.4021 75.5267 75.4645 76.4644C74.5268 77.4021 74 78.6739 74 79.9999V105C74 106.326 74.5268 107.598 75.4645 108.535C76.4021 109.473 77.6739 110 79 110H114C115.326 110 116.598 109.473 117.536 108.535C118.473 107.598 119 106.326 119 105V79.9999C119 78.6739 118.473 77.4021 117.536 76.4644C116.598 75.5267 115.326 74.9999 114 74.9999ZM96.5 97.4999C95.5111 97.4999 94.5444 97.2067 93.7221 96.6573C92.8999 96.1079 92.259 95.327 91.8806 94.4134C91.5022 93.4997 91.4031 92.4944 91.5961 91.5245C91.789 90.5546 92.2652 89.6637 92.9645 88.9644C93.6637 88.2651 94.5546 87.7889 95.5246 87.596C96.4945 87.4031 97.4998 87.5021 98.4134 87.8805C99.327 88.259 100.108 88.8998 100.657 89.7221C101.207 90.5443 101.5 91.511 101.5 92.4999C101.5 93.826 100.973 95.0978 100.036 96.0355C99.0979 96.9732 97.8261 97.4999 96.5 97.4999ZM101.5 74.9999H91.5V62.4999C91.5 61.1739 92.0268 59.9021 92.9645 58.9644C93.9021 58.0267 95.1739 57.4999 96.5 57.4999C97.8261 57.4999 99.0979 58.0267 100.036 58.9644C100.973 59.9021 101.5 61.1739 101.5 62.4999V74.9999Z" fill="black"/>
</g>
<defs>
<clipPath id="clip0">
<rect width="100" height="80" fill="white" transform="translate(19 30)"/>
</clipPath>
</defs>
</svg>
