<svg width="107" height="85" viewBox="0 0 107 85" fill="none" xmlns="http://www.w3.org/2000/svg">
<path d="M105.428 60.5791L90.3314 45.6045C88.3252 43.6123 85.6 42.5 82.7578 42.5H69.4999C66.5406 42.5 64.1499 44.874 64.1499 47.8125V60.9609C64.1499 63.7832 65.27 66.4727 67.2763 68.4648L82.3733 83.4395C84.4631 85.5146 87.857 85.5146 89.9469 83.4395L105.412 68.083C107.518 66.0078 107.518 62.6543 105.428 60.5791ZM74.8666 57.0928C72.643 57.0928 70.8541 55.3164 70.8541 53.1084C70.8541 50.9004 72.643 49.124 74.8666 49.124C77.0902 49.124 78.8791 50.9004 78.8791 53.1084C78.8791 55.2998 77.0902 57.0928 74.8666 57.0928ZM37.45 42.4834C49.2702 42.4834 58.85 32.9707 58.85 21.2334C58.85 9.5127 49.2702 0 37.45 0C25.6298 0 16.05 9.5127 16.05 21.25C16.05 32.9707 25.6298 42.4834 37.45 42.4834V42.4834ZM58.8166 60.9443V48.8086C56.7769 48.2109 54.6536 47.7793 52.43 47.7793H49.638C45.9264 49.4727 41.7969 50.4355 37.45 50.4355C33.1031 50.4355 28.9903 49.4727 25.262 47.7793H22.47C10.0647 47.7959 0 57.79 0 70.1084V77.0146C0 81.4141 3.59453 84.9834 8.025 84.9834H66.875C69.4664 84.9834 71.7402 83.7383 73.2114 81.8457L63.5145 72.2168C60.4884 69.2119 58.8166 65.2109 58.8166 60.9443V60.9443Z" fill="#252626"/>
</svg>
