<svg width="140" height="140" viewBox="0 0 140 140" fill="none" xmlns="http://www.w3.org/2000/svg">
<circle cx="70" cy="70" r="68.5" fill="#252626" stroke="#0D0D0D" stroke-width="3"/>
<path d="M115.401 88.3281C115.807 86.125 115.807 83.875 115.401 81.6719L119.432 79.3438C119.901 79.0781 120.104 78.5312 119.948 78.0156C118.901 74.6406 117.104 71.5781 114.76 69.0469C114.401 68.6562 113.822 68.5625 113.354 68.8281L109.322 71.1562C107.619 69.7031 105.665 68.5781 103.556 67.8281V63.1719C103.556 62.6406 103.181 62.1719 102.665 62.0625C99.1802 61.2812 95.633 61.3125 92.3201 62.0625C91.8044 62.1719 91.4294 62.6406 91.4294 63.1719V67.8281C89.3198 68.5781 87.3665 69.7031 85.6632 71.1562L81.6315 68.8281C81.1783 68.5625 80.5845 68.6562 80.2251 69.0469C77.8811 71.5781 76.084 74.6406 75.0371 78.0156C74.8808 78.5312 75.0996 79.0781 75.5527 79.3438L79.5844 81.6719C79.1781 83.875 79.1781 86.125 79.5844 88.3281L75.5527 90.6562C75.0839 90.9219 74.8808 91.4688 75.0371 91.9844C76.084 95.3594 77.8811 98.4062 80.2251 100.953C80.5845 101.344 81.1627 101.438 81.6315 101.172L85.6632 98.8438C87.3665 100.297 89.3198 101.422 91.4294 102.172V106.828C91.4294 107.359 91.8044 107.828 92.3201 107.938C95.8049 108.719 99.3521 108.688 102.665 107.938C103.181 107.828 103.556 107.359 103.556 106.828V102.172C105.665 101.422 107.619 100.297 109.322 98.8438L113.354 101.172C113.807 101.438 114.401 101.344 114.76 100.953C117.104 98.4219 118.901 95.3594 119.948 91.9844C120.104 91.4688 119.886 90.9219 119.432 90.6562L115.401 88.3281ZM97.5082 92.5781C93.3202 92.5781 89.9293 89.1719 89.9293 85C89.9293 80.8281 93.3359 77.4219 97.5082 77.4219C101.68 77.4219 105.087 80.8281 105.087 85C105.087 89.1719 101.696 92.5781 97.5082 92.5781ZM55.0037 70C66.0517 70 75.0058 61.0469 75.0058 50C75.0058 38.9531 66.0517 30 55.0037 30C43.9557 30 35.0016 38.9531 35.0016 50C35.0016 61.0469 43.9557 70 55.0037 70ZM86.4445 105.391C86.0851 105.203 85.7257 104.984 85.3819 104.781L84.1474 105.5C83.2098 106.031 82.1472 106.328 81.0846 106.328C79.3813 106.328 77.7405 105.609 76.5685 104.359C73.7088 101.266 71.5211 97.5 70.2866 93.4844C69.4271 90.7187 70.5835 87.7969 73.0837 86.3438L74.3182 85.625C74.3026 85.2188 74.3026 84.8125 74.3182 84.4062L73.0837 83.6875C70.5835 82.25 69.4271 79.3125 70.2866 76.5469C70.4272 76.0938 70.6303 75.6406 70.7866 75.1875C70.1928 75.1406 69.6146 75 69.0052 75H66.3955C62.9264 76.5938 59.0666 77.5 55.0037 77.5C50.9408 77.5 47.0966 76.5938 43.6119 75H41.0022C29.4072 75 20 84.4062 20 96V102.5C20 106.641 23.3597 110 27.5008 110H82.5066C84.0849 110 85.5538 109.5 86.757 108.672C86.5695 108.078 86.4445 107.469 86.4445 106.828V105.391Z" fill="black"/>
</svg>
