<svg width="140" height="140" viewBox="0 0 140 140" fill="none" xmlns="http://www.w3.org/2000/svg">
<circle cx="70" cy="70" r="68.5" fill="#252626" stroke="#0D0D0D" stroke-width="3"/>
<path d="M111.75 32H29.25C24.6953 32 21 35.6953 21 40.25V100.75C21 105.305 24.6953 109 29.25 109H111.75C116.305 109 120 105.305 120 100.75V40.25C120 35.6953 116.305 32 111.75 32ZM51.25 48.5C57.3172 48.5 62.25 53.4328 62.25 59.5C62.25 65.5672 57.3172 70.5 51.25 70.5C45.1828 70.5 40.25 65.5672 40.25 59.5C40.25 53.4328 45.1828 48.5 51.25 48.5ZM70.5 89.2C70.5 91.0219 68.7813 92.5 66.65 92.5H35.85C33.7188 92.5 32 91.0219 32 89.2V85.9C32 80.4344 37.1734 76 43.55 76V76C44.1173 76 44.6769 76.1179 45.2106 76.3106C47.1009 76.9933 49.1294 77.375 51.25 77.375C53.369 77.375 55.4092 76.9939 57.2901 76.3122C57.8234 76.1189 58.3827 76 58.95 76V76C65.3266 76 70.5 80.4344 70.5 85.9V89.2ZM109 80.125C109 80.8813 108.381 81.5 107.625 81.5H82.875C82.1187 81.5 81.5 80.8813 81.5 80.125V77.375C81.5 76.6187 82.1187 76 82.875 76H107.625C108.381 76 109 76.6187 109 77.375V80.125ZM109 69.125C109 69.8813 108.381 70.5 107.625 70.5H82.875C82.1187 70.5 81.5 69.8813 81.5 69.125V66.375C81.5 65.6187 82.1187 65 82.875 65H107.625C108.381 65 109 65.6187 109 66.375V69.125ZM109 58.125C109 58.8813 108.381 59.5 107.625 59.5H82.875C82.1187 59.5 81.5 58.8813 81.5 58.125V55.375C81.5 54.6187 82.1187 54 82.875 54H107.625C108.381 54 109 54.6187 109 55.375V58.125Z" fill="#0D0D0D"/>
</svg>
