<svg width="88" height="88" viewBox="0 0 88 88" fill="none" xmlns="http://www.w3.org/2000/svg">
<path d="M85.25 66H11V13.75C11 12.2306 9.76938 11 8.25 11H2.75C1.23062 11 0 12.2306 0 13.75V71.5C0 74.537 2.46297 77 5.5 77H85.25C86.7694 77 88 75.7694 88 74.25V68.75C88 67.2306 86.7694 66 85.25 66ZM79.75 16.5H59.4584C55.7838 16.5 53.943 20.943 56.5417 23.5417L62.1105 29.1105L49.5 41.7227L36.8895 29.1122C34.7411 26.9638 31.2589 26.9638 29.1122 29.1122L17.3061 40.9183C16.2319 41.9925 16.2319 43.7336 17.3061 44.8078L21.1939 48.6956C22.2681 49.7698 24.0092 49.7698 25.0834 48.6956L33 40.7773L45.6105 53.3878C47.7589 55.5362 51.2411 55.5362 53.3878 53.3878L69.8878 36.8878L75.4566 42.4566C78.0553 45.0553 82.4983 43.2145 82.4983 39.5398V19.25C82.5 17.7306 81.2694 16.5 79.75 16.5Z" fill="#252626"/>
</svg>
