<svg width="140" height="140" viewBox="0 0 140 140" fill="none" xmlns="http://www.w3.org/2000/svg">
<circle cx="70" cy="70" r="68.5" fill="#252626" stroke="#0D0D0D" stroke-width="3"/>
<g clip-path="url(#clip0)">
<path d="M55 70C66.0469 70 75 61.0469 75 50C75 38.9531 66.0469 30 55 30C43.9531 30 35 38.9531 35 50C35 61.0469 43.9531 70 55 70ZM69 75H66.3906C62.9219 76.5938 59.0625 77.5 55 77.5C50.9375 77.5 47.0938 76.5938 43.6094 75H41C29.4062 75 20 84.4062 20 96V102.5C20 106.641 23.3594 110 27.5 110H70.4531C70.0781 108.938 69.9219 107.812 70.0469 106.672L71.1094 97.1562L71.2969 95.4219L72.5312 94.1875L84.6094 82.1094C80.7812 77.7812 75.2344 75 69 75ZM76.0781 97.7031L75.0156 107.234C74.8438 108.828 76.1875 110.172 77.7656 109.984L87.2812 108.922L108.828 87.375L97.625 76.1719L76.0781 97.7031ZM118.906 72.0156L112.984 66.0938C111.531 64.6406 109.156 64.6406 107.703 66.0938L101.797 72L101.156 72.6406L112.375 83.8438L118.906 77.3125C120.359 75.8438 120.359 73.4844 118.906 72.0156Z" fill="black"/>
</g>
<defs>
<clipPath id="clip0">
<rect width="100" height="80" fill="white" transform="translate(20 30)"/>
</clipPath>
</defs>
</svg>
