<svg width="73" height="98" viewBox="0 0 73 98" fill="none" xmlns="http://www.w3.org/2000/svg">
<path d="M63.875 12.25H48.6667C48.6667 5.49336 43.2107 0 36.5 0C29.7893 0 24.3333 5.49336 24.3333 12.25H9.125C4.08724 12.25 0 16.3652 0 21.4375V88.8125C0 93.8848 4.08724 98 9.125 98H63.875C68.9128 98 73 93.8848 73 88.8125V21.4375C73 16.3652 68.9128 12.25 63.875 12.25ZM18.25 81.1562C15.7216 81.1562 13.6875 79.1082 13.6875 76.5625C13.6875 74.0168 15.7216 71.9688 18.25 71.9688C20.7784 71.9688 22.8125 74.0168 22.8125 76.5625C22.8125 79.1082 20.7784 81.1562 18.25 81.1562ZM18.25 62.7812C15.7216 62.7812 13.6875 60.7332 13.6875 58.1875C13.6875 55.6418 15.7216 53.5938 18.25 53.5938C20.7784 53.5938 22.8125 55.6418 22.8125 58.1875C22.8125 60.7332 20.7784 62.7812 18.25 62.7812ZM18.25 44.4062C15.7216 44.4062 13.6875 42.3582 13.6875 39.8125C13.6875 37.2668 15.7216 35.2188 18.25 35.2188C20.7784 35.2188 22.8125 37.2668 22.8125 39.8125C22.8125 42.3582 20.7784 44.4062 18.25 44.4062ZM36.5 7.65625C39.0284 7.65625 41.0625 9.7043 41.0625 12.25C41.0625 14.7957 39.0284 16.8438 36.5 16.8438C33.9716 16.8438 31.9375 14.7957 31.9375 12.25C31.9375 9.7043 33.9716 7.65625 36.5 7.65625ZM60.8333 78.0938C60.8333 78.9359 60.149 79.625 59.3125 79.625H31.9375C31.101 79.625 30.4167 78.9359 30.4167 78.0938V75.0312C30.4167 74.1891 31.101 73.5 31.9375 73.5H59.3125C60.149 73.5 60.8333 74.1891 60.8333 75.0312V78.0938ZM60.8333 59.7188C60.8333 60.5609 60.149 61.25 59.3125 61.25H31.9375C31.101 61.25 30.4167 60.5609 30.4167 59.7188V56.6562C30.4167 55.8141 31.101 55.125 31.9375 55.125H59.3125C60.149 55.125 60.8333 55.8141 60.8333 56.6562V59.7188ZM60.8333 41.3438C60.8333 42.1859 60.149 42.875 59.3125 42.875H31.9375C31.101 42.875 30.4167 42.1859 30.4167 41.3438V38.2812C30.4167 37.4391 31.101 36.75 31.9375 36.75H59.3125C60.149 36.75 60.8333 37.4391 60.8333 38.2812V41.3438Z" fill="#252626"/>
</svg>
