<svg width="200" height="200" viewBox="0 0 200 200" fill="none" xmlns="http://www.w3.org/2000/svg">
<circle cx="100" cy="100" r="99.5" fill="#FDD61C" stroke="#4B5458"/>
<path d="M169.344 53.25V57.9062C169.344 58.5237 169.098 59.1159 168.662 59.5525C168.225 59.9891 167.633 60.2344 167.016 60.2344H160.031V63.7266C160.031 65.6551 158.468 67.2187 156.539 67.2187H42.4609C40.5324 67.2187 38.9688 65.6551 38.9688 63.7266V60.2344H31.9844C31.3669 60.2344 30.7748 59.9891 30.3381 59.5525C29.9015 59.1159 29.6562 58.5237 29.6562 57.9062V53.25C29.6563 52.7894 29.7929 52.3392 30.0488 51.9562C30.3048 51.5733 30.6686 51.2749 31.0942 51.0988L98.6098 25.4894C99.1798 25.2534 99.8202 25.2534 100.39 25.4894L167.906 51.0988C168.331 51.2749 168.695 51.5733 168.951 51.9562C169.207 52.3392 169.344 52.7894 169.344 53.25ZM162.359 141.719H36.6406C32.7832 141.719 29.6562 144.846 29.6562 148.703V153.359C29.6562 153.977 29.9015 154.569 30.3381 155.006C30.7748 155.442 31.3669 155.687 31.9844 155.687H167.016C167.633 155.687 168.225 155.442 168.662 155.006C169.098 154.569 169.344 153.977 169.344 153.359V148.703C169.344 144.846 166.217 141.719 162.359 141.719ZM52.9375 71.875V127.75H42.4609C40.5324 127.75 38.9688 129.314 38.9688 131.242V137.062H160.031V131.242C160.031 129.314 158.468 127.75 156.539 127.75H146.062V71.875H127.438V127.75H108.812V71.875H90.1875V127.75H71.5625V71.875H52.9375Z" fill="#0069A3"/>
</svg>
